<svg xmlns="http://www.w3.org/2000/svg" width="737.39" height="544" xmlns:v="https://vecta.io/nano"><path d="M273.316 335.182L120.67 367.357c-9.185 1.925-18.195-3.948-20.141-13.128L74.335 229.959c-1.925-9.185 3.948-18.195 13.128-20.141l152.646-32.175c9.185-1.925 18.195 3.948 20.141 13.128l26.194 124.269c1.925 9.185-3.948 18.195-13.128 20.141zM87.876 211.775a15.02 15.02 0 0 0-11.584 17.771l26.194 124.269a15.02 15.02 0 0 0 17.771 11.584l152.646-32.175a15.02 15.02 0 0 0 11.584-17.771l-26.194-124.269a15.02 15.02 0 0 0-17.771-11.584z" fill="#3f3d56"/><g fill="#ccc"><use href="#B"/><use href="#B" x="2.849" y="13.513"/><path d="M141.403 259.574l-23.511 4.956c-1.599.335-3.167-.687-3.506-2.285l-5.848-27.745c-.335-1.599.687-3.167 2.285-3.506l23.511-4.956c1.599-.335 3.167.687 3.506 2.285l5.848 27.745c.335 1.599-.687 3.167-2.285 3.506z"/><use href="#C"/><use href="#C" x="2.85" y="13.517"/><use href="#C" x="5.697" y="27.025"/><use href="#C" x="8.546" y="40.541"/><path d="M250.474 313.897L132.9 338.68a2.73 2.73 0 0 1-3.229-1.863 2.63 2.63 0 0 1 1.999-3.254l118.958-25.074c3.062 1.726 2.094 4.935-.152 5.409z"/></g><path d="M269.229 252.03a10.5 10.5 0 0 0-.683 1.51l-48.133 11.944-8.373-8.663-14.725 10.928 13.333 16.776a8 8 0 0 0 9.289 2.428l52.229-21.342a10.5 10.5 0 1 0-2.936-13.582zM104.932 358.323c3.038-.938 5.504-3.174 6.735-6.105s1.1-6.257-.357-9.083l33.124-92.067-23.004-4.077-25.327 91.781a10.8 10.8 0 0 0 8.828 19.55z" fill="#ffb8b8"/><path d="M140.228 267.411l-22.713-8.717c-1.308-.502-2.332-1.548-2.806-2.866s-.351-2.777.337-3.997l11.915-21.126a13.38 13.38 0 0 1 17.29-7.607 13.38 13.38 0 0 1 7.66 17.266l-5.256 23.598c-.305 1.367-1.19 2.534-2.424 3.196s-2.696.754-4.003.253z" fill="#4f46e5"/><use href="#D" fill="#ffb8b8"/><use href="#E" fill="#2f2e41"/><use href="#D" x="-69" fill="#ffb8b8"/><g fill="#2f2e41"><use href="#E" x="-69"/><path d="M135.345 512.142h-15.515a4.5 4.5 0 0 1-4.495-4.714l7.369-158.332.464-.013 74.919-1.953 14.66 158.423a4.5 4.5 0 0 1-4.121 4.911l-17.426 1.394c-2.265.18-4.31-1.356-4.767-3.582L164.145 395.5c-.126-.708-.75-1.218-1.469-1.199h-.006c-.722-.016-1.346.499-1.466 1.211l-21.443 113a4.51 4.51 0 0 1-4.415 3.631z"/></g><circle cx="163.765" cy="183.324" r="24.561" fill="#ffb8b8"/><g fill="#4f46e5"><path d="M155.529 367.651c-11.706 0-23.73-3.077-33.698-12.175a4.55 4.55 0 0 1-1.469-3.85c1.067-9.586 6.242-59.081 3.328-92.144a40.02 40.02 0 0 1 12.956-33.305 39.6 39.6 0 0 1 33.962-9.834h0l.918.171c19.664 3.806 33.326 22.004 31.78 42.331-2.256 29.66-4.278 69.779-1.103 92.468.27 1.903-.701 3.767-2.415 4.637-7.225 3.65-25.326 11.7-44.258 11.7z"/><path d="M187.579 269.178a4.81 4.81 0 0 1-2.109-3.411l-2.992-23.99a13.38 13.38 0 0 1 9.263-16.465 13.38 13.38 0 0 1 16.491 9.217l9.856 22.161c.569 1.28.553 2.744-.044 4.011s-1.716 2.211-3.066 2.587l-23.437 6.522a4.81 4.81 0 0 1-3.961-.632z"/></g><path d="M155.191 207.538a17.6 17.6 0 0 1-6.797-1.23l-2.889-1.035c-8.387-3.24-13.911-12.172-14.109-21.16s4.457-17.713 11.369-23.462 15.865-8.701 24.83-9.384c9.657-.735 20.53 1.714 25.926 9.756 1.436 2.141 2.441 4.738 1.59 7.322-.255.78-.71 1.479-1.32 2.028-2.41 2.144-4.812.532-7.269.389-3.377-.196-6.409 2.537-7.499 5.739s-.61 6.727.27 9.992a24.96 24.96 0 0 1 1.258 6.076 6.11 6.11 0 0 1-2.531 5.379c-2.11 1.275-4.881.537-6.992-.736s-3.935-3.044-6.216-3.981-5.344-.729-6.671 1.348a7.38 7.38 0 0 0-.843 2.435c-1.19 5.421-.916 5.102-2.106 10.523z" fill="#2f2e41"/><path d="M495.39 174h-156c-9.384-.011-16.989-7.616-17-17V30c.011-9.384 7.616-16.989 17-17h156c9.384.011 16.989 7.616 17 17v127c-.011 9.384-7.616 16.989-17 17zm-156-159a15.02 15.02 0 0 0-15 15v127a15.02 15.02 0 0 0 15 15h156a15.02 15.02 0 0 0 15-15V30a15.02 15.02 0 0 0-15-15z" fill="#3f3d56"/><g fill="#ccc"><use href="#F"/><use href="#F" y="13.81"/></g><path d="M381.907 72.811h-24.028c-1.634-.002-2.957-1.325-2.959-2.959V41.497c.002-1.634 1.325-2.957 2.959-2.959h24.028c1.633.002 2.957 1.326 2.959 2.959v28.355c-.002 1.634-1.325 2.957-2.959 2.959z" fill="#3f3d56"/><g fill="#ccc"><use href="#G"/><use href="#G" y="13.814"/><use href="#G" y="27.619"/><use href="#G" y="41.432"/><use href="#G" y="55.238"/></g><path d="M461.39 0c2.76.003 4.997 2.24 5 5v16c-.003 2.76-2.24 4.997-5 5h-88c-2.76-.003-4.997-2.24-5-5V5c.003-2.76 2.24-4.997 5-5" fill="#4f46e5"/><g fill="#3f3d56"><path d="M720.39 331h-156c-9.384-.011-16.989-7.616-17-17V187c.011-9.384 7.616-16.989 17-17h156c9.384.011 16.989 7.616 17 17v127c-.011 9.384-7.616 16.989-17 17zm-156-159a15.02 15.02 0 0 0-15 15v127a15.02 15.02 0 0 0 15 15h156a15.02 15.02 0 0 0 15-15V187a15.02 15.02 0 0 0-15-15z"/><use href="#F" x="225" y="157"/><use href="#F" x="225" y="170.81"/></g><path d="M606.907 229.811h-24.028c-1.634-.002-2.957-1.325-2.959-2.959v-28.355c.002-1.634 1.325-2.957 2.959-2.959h24.028c1.633.002 2.957 1.326 2.959 2.959v28.355c-.002 1.634-1.325 2.957-2.959 2.959z" fill="#ccc"/><path d="M701.907 306.811h-24.028c-1.634-.002-2.957-1.325-2.959-2.959v-16.355c.002-1.634 1.325-2.957 2.959-2.959h24.028c1.633.002 2.957 1.326 2.959 2.959v16.355c-.002 1.634-1.325 2.957-2.959 2.959z" fill="#3f3d56"/><g fill="#ccc"><use href="#H"/><use href="#H" y="13.814"/><use href="#H" y="27.619"/><use href="#I"/><use href="#I" y="13.806"/></g><path d="M686.39 183h-88c-2.76-.003-4.997-2.24-5-5v-16c.003-2.76 2.24-4.997 5-5h88c2.76.003 4.997 2.24 5 5v16c-.003 2.76-2.24 4.997-5 5z" fill="#4f46e5"/><path d="M382 544H1a1 1 0 1 1 0-2h381a1 1 0 1 1 0 2z" fill="#3f3d56"/><g fill="#f2f2f2"><circle cx="96.764" cy="23.324" r="6.467"/><circle cx="96.764" cy="49.098" r="6.467"/><circle cx="96.764" cy="74.871" r="6.467"/><circle cx="96.764" cy="100.644" r="6.467"/><circle cx="123.764" cy="23.324" r="6.467"/><circle cx="123.764" cy="49.098" r="6.467"/><circle cx="123.764" cy="74.871" r="6.467"/><circle cx="123.764" cy="100.644" r="6.467"/><circle cx="150.764" cy="23.324" r="6.467"/><circle cx="150.764" cy="49.098" r="6.467"/><circle cx="150.764" cy="74.871" r="6.467"/><circle cx="150.764" cy="100.644" r="6.467"/><circle cx="177.764" cy="23.324" r="6.467"/><circle cx="177.764" cy="49.098" r="6.467"/><circle cx="177.764" cy="74.871" r="6.467"/><circle cx="177.764" cy="100.644" r="6.467"/><circle cx="204.764" cy="23.324" r="6.467"/><circle cx="204.764" cy="49.098" r="6.467"/><circle cx="204.764" cy="74.871" r="6.467"/><circle cx="204.764" cy="100.644" r="6.467"/><circle cx="231.764" cy="23.324" r="6.467"/><circle cx="231.764" cy="49.098" r="6.467"/><circle cx="231.764" cy="74.871" r="6.467"/><circle cx="231.764" cy="100.644" r="6.467"/><circle cx="601.764" cy="381.324" r="6.467"/><circle cx="601.764" cy="407.098" r="6.467"/><circle cx="601.764" cy="432.871" r="6.467"/><circle cx="628.764" cy="381.324" r="6.467"/><circle cx="628.764" cy="407.098" r="6.467"/><circle cx="628.764" cy="432.871" r="6.467"/><circle cx="655.764" cy="381.324" r="6.467"/><circle cx="655.764" cy="407.098" r="6.467"/><circle cx="655.764" cy="432.871" r="6.467"/><circle cx="682.764" cy="381.324" r="6.467"/><circle cx="682.764" cy="407.098" r="6.467"/><circle cx="682.764" cy="432.871" r="6.467"/></g><defs ><path id="B" d="M230.625 218.618l-77.038 16.238a2.73 2.73 0 0 1-3.229-1.863 2.63 2.63 0 0 1 1.999-3.254l78.42-16.53c3.062 1.726 2.094 4.935-.152 5.409z"/><path id="C" d="M239.081 259.847l-117.575 24.783a2.73 2.73 0 0 1-3.229-1.863 2.63 2.63 0 0 1 1.999-3.254l118.958-25.074c3.062 1.726 2.094 4.935-.152 5.409z"/><path id="D" d="M191.493 531.175h12.259l5.833-47.288-18.094.001.002 47.287z"/><path id="E" d="M188.366 527.173l24.144-.001h.001c4.081 0 7.994 1.621 10.88 4.506s4.507 6.799 4.507 10.88v.5l-39.531.001z"/><path id="F" d="M477.658 51.138h-78.731a2.73 2.73 0 0 1-2.776-2.489 2.63 2.63 0 0 1 2.627-2.772h80.143c2.64 2.32 1.031 5.261-1.264 5.261z"/><path id="G" d="M477.429 93.224H357.271a2.73 2.73 0 0 1-2.776-2.489 2.63 2.63 0 0 1 2.627-2.772h121.571c2.64 2.32 1.031 5.261-1.264 5.261z"/><path id="H" d="M702.429 250.224H582.271a2.73 2.73 0 0 1-2.776-2.489 2.63 2.63 0 0 1 2.627-2.772h121.571c2.64 2.32 1.031 5.261-1.264 5.261z"/><path id="I" d="M639.429 291.656h-57.158a2.73 2.73 0 0 1-2.776-2.489 2.63 2.63 0 0 1 2.627-2.772h58.571c2.64 2.32 1.031 5.261-1.264 5.261z"/></defs></svg>